<svg width="46" height="46" viewBox="0 0 46 46" fill="none" xmlns="http://www.w3.org/2000/svg">
<path d="M42.8135 2.6748L22.8135 22.6748M42.8135 2.6748V13.9248M42.8135 2.6748H31.5635M40.3135 23.9248V34.6748C40.3135 37.4751 40.3135 38.8753 39.7685 39.9448C39.2892 40.8856 38.5242 41.6506 37.5835 42.1298C36.514 42.6748 35.1137 42.6748 32.3135 42.6748H10.8135C8.01323 42.6748 6.61308 42.6748 5.54353 42.1298C4.6027 41.6506 3.8378 40.8856 3.35845 39.9448C2.81348 38.8753 2.81348 37.4751 2.81348 34.6748V13.1748C2.81348 10.3746 2.81348 8.9744 3.35845 7.90485C3.8378 6.96403 4.6027 6.19913 5.54353 5.71978C6.61308 5.1748 8.0132 5.1748 10.8135 5.1748H21.5635" stroke="#ABABAB" stroke-width="5" stroke-linecap="round" stroke-linejoin="round"/>
</svg>
