<svg width="60" height="57" viewBox="0 0 60 57" fill="none" xmlns="http://www.w3.org/2000/svg">
<path d="M33.3033 33.3301L30.2672 31.1748C30.2496 31.163 30.229 31.1567 30.2078 31.1567C30.1867 31.1567 30.166 31.163 30.1485 31.1748L27.1435 33.3926C27.1269 33.405 27.1067 33.4119 27.086 33.4123C27.0652 33.4128 27.0448 33.4067 27.0276 33.3951C27.0105 33.3834 26.9974 33.3666 26.9901 33.3472C26.9829 33.3277 26.9819 33.3065 26.9873 33.2864L27.9307 29.7192C27.9343 29.6998 27.9328 29.6797 27.9262 29.6611C27.9196 29.6424 27.9082 29.6259 27.8932 29.613L25.0319 27.4577C25.0149 27.4455 25.0021 27.4282 24.9954 27.4083C24.9888 27.3884 24.9885 27.3669 24.9947 27.3468C25.0009 27.3268 25.0133 27.3092 25.0301 27.2966C25.0469 27.284 25.0672 27.277 25.0882 27.2765L28.6554 27.1453C28.6746 27.1452 28.6933 27.1391 28.7089 27.1279C28.7246 27.1167 28.7364 27.101 28.7428 27.0829L30.0298 23.5844C30.0369 23.5653 30.0496 23.5488 30.0664 23.5371C30.0831 23.5255 30.1031 23.5192 30.1235 23.5192C30.1439 23.5192 30.1638 23.5255 30.1805 23.5371C30.1973 23.5488 30.2101 23.5653 30.2172 23.5844L31.5728 27.0516C31.5792 27.0698 31.5911 27.0855 31.6067 27.0967C31.6224 27.1078 31.6411 27.1139 31.6603 27.1141L35.24 27.1703C35.2615 27.1694 35.2828 27.1754 35.3006 27.1876C35.3184 27.1997 35.3318 27.2172 35.3388 27.2376C35.3458 27.258 35.3461 27.2801 35.3395 27.3006C35.333 27.3211 35.32 27.339 35.3024 27.3515L32.4849 29.5568C32.475 29.5727 32.4697 29.5911 32.4697 29.6099C32.4697 29.6287 32.475 29.6471 32.4849 29.663L33.4907 33.2239C33.5048 33.2488 33.5085 33.2782 33.5008 33.3057C33.4932 33.3333 33.475 33.3567 33.4501 33.3707C33.4253 33.3848 33.3959 33.3885 33.3683 33.3808C33.3408 33.3732 33.3174 33.355 33.3033 33.3301Z" fill="white"/>
<path d="M37.7264 41.7702L33.978 39.1214C34.3279 38.8402 34.6028 38.5779 34.9401 38.3467C40.9791 33.9695 47.0181 29.5964 53.0572 25.2275C54.594 24.1092 54.8439 22.6536 53.7569 21.3229C53.5972 21.1028 53.3916 20.9201 53.1543 20.7874C52.9169 20.6547 52.6536 20.5752 52.3825 20.5545C51.2767 20.5108 50.1709 20.492 49.0714 20.4795C48.253 20.4795 47.4284 20.4795 46.5725 20.4795L45.1606 16.1814C45.3391 16.1361 45.5208 16.1048 45.7041 16.0877C49.0714 16.0877 52.4449 16.1189 55.8185 16.0877C56.2197 16.0368 56.6256 16.1364 56.9579 16.3671C57.2901 16.5978 57.5252 16.9434 57.6177 17.3372C58.3611 19.6049 59.117 21.8789 59.8604 24.1467C60.0192 24.5044 60.0434 24.9075 59.9286 25.2817C59.8138 25.6559 59.5677 25.976 59.2357 26.1833C57.8988 27.1454 56.5869 28.1387 55.2562 29.107L39.0695 40.7894L37.7264 41.7702Z" fill="white"/>
<path d="M21.1963 41.0518L22.5707 36.7162C23.1392 37.0973 23.6702 37.4346 24.1825 37.8032C29.9175 41.9389 35.6504 46.0808 41.3812 50.229C41.6561 50.4227 41.9372 50.6039 42.2183 50.7788C42.6286 51.0796 43.1296 51.2307 43.6378 51.2068C44.146 51.1829 44.6306 50.9855 45.0109 50.6476C45.4076 50.3822 45.7066 49.9944 45.8623 49.5432C46.018 49.092 46.0217 48.6022 45.873 48.1487C45.3857 46.3932 44.8172 44.6627 44.2674 42.851L47.9533 40.2147C48.0602 40.3331 48.1506 40.4655 48.222 40.6082C49.1715 43.5694 50.0961 46.5369 51.0582 49.4981C51.6267 51.2473 51.5705 51.5222 50.0836 52.6217C48.4094 53.8712 46.7226 55.0769 45.0109 56.2701C43.7614 57.1572 43.3803 57.1572 42.0996 56.2701C39.1884 54.196 36.2959 52.0907 33.3972 50.0229L21.771 41.5141C21.5711 41.3642 21.3775 41.2017 21.1963 41.0518Z" fill="white"/>
<path d="M25.8752 11.3148H21.2397C21.4896 10.5651 21.7208 9.89667 21.9394 9.22196C22.7724 6.72306 23.5866 4.23456 24.3821 1.75648C24.4571 1.53783 24.557 1.32542 24.6445 1.13176C24.7551 0.770121 24.9902 0.459358 25.3081 0.254636C25.6261 0.0499136 26.0063 -0.0355219 26.3812 0.0134964C28.7989 0.0697218 31.2354 0.0134964 33.6406 0.0447327C34.0072 0.0644611 34.3722 0.106185 34.7338 0.169678C35.0375 0.751833 35.3087 1.35041 35.546 1.96264C36.7017 5.42987 37.82 8.90335 38.957 12.3706L43.1614 25.1962C43.2801 25.5586 43.3738 25.9334 43.4925 26.3332L39.8191 29.007C39.6997 28.8058 39.5933 28.5971 39.5005 28.3823C38.251 24.5507 37.0016 20.7169 35.7521 16.8811C34.6943 13.6325 33.6406 10.3819 32.591 7.12913C32.4642 6.76468 32.3161 6.40797 32.1475 6.06085C31.9795 5.60983 31.6735 5.22331 31.2731 4.95634C30.8726 4.68937 30.3981 4.55557 29.9172 4.574C29.4229 4.55082 28.9346 4.69042 28.5272 4.97141C28.1198 5.25239 27.8159 5.65924 27.6619 6.12957C27.2621 7.21659 26.906 8.31611 26.5312 9.40938C26.3188 10.0404 26.1001 10.6651 25.8752 11.3148Z" fill="white"/>
<path d="M16.7352 25.2274H21.3645C20.8897 26.6893 20.4399 28.1261 19.9901 29.5193L14.5612 46.1745C14.3613 46.7992 14.1426 47.4239 13.9927 48.0487C13.886 48.4064 13.8633 48.784 13.9261 49.152C13.9889 49.5199 14.1357 49.8685 14.355 50.1706C14.5744 50.4727 14.8603 50.7202 15.1908 50.8939C15.5212 51.0677 15.8872 51.1629 16.2604 51.1723C16.7193 51.1923 17.1731 51.0701 17.5599 50.8225C18.9655 49.8791 20.3337 48.8671 21.7081 47.88C21.8143 47.805 21.908 47.7238 22.0204 47.6364C22.1716 47.6855 22.3179 47.7482 22.4577 47.8238C23.5885 48.6297 24.713 49.4418 25.85 50.2602C25.8 50.3602 25.7813 50.4414 25.7313 50.4789C23.0575 52.403 20.3899 54.3647 17.7036 56.2388C16.5103 57.0947 16.0543 57.1072 14.8548 56.2388C13.0244 54.9894 11.2439 53.6087 9.41344 52.3156C9.03116 52.0978 8.74303 51.7463 8.6046 51.3287C8.46617 50.9111 8.48725 50.457 8.66377 50.054C9.41344 47.8175 10.1069 45.556 10.8378 43.307C12.4288 38.3967 14.0218 33.4842 15.617 28.5697C15.9793 27.5014 16.3541 26.3832 16.7352 25.2274Z" fill="white"/>
<path d="M10.8006 28.0887L9.41374 32.4993C8.62034 31.937 7.89566 31.4248 7.17722 30.9062C5.19684 29.5006 3.20396 28.0825 1.24857 26.6269C-0.163313 25.5773 -0.213292 25.4461 0.292737 23.7531C0.917463 21.7665 1.54219 19.7923 2.21689 17.8182C2.39807 17.1419 2.79782 16.5444 3.3539 16.119H30.4983C31.1792 17.4121 31.3729 18.9052 31.9976 20.3733C31.6228 20.3733 31.3291 20.4233 31.0355 20.4233H9.48871H7.94564C7.41529 20.4151 6.89762 20.5857 6.47604 20.9075C6.05445 21.2294 5.75349 21.6838 5.62165 22.1975C5.43173 22.6413 5.39815 23.1364 5.5264 23.6018C5.65466 24.0671 5.93714 24.4751 6.32759 24.7589C7.00855 25.3399 7.74572 25.8647 8.46416 26.402C9.18259 26.9392 9.93227 27.4577 10.8006 28.0887Z" fill="white"/>
</svg>
