<svg width="20" height="20" viewBox="0 0 20 20" fill="none" xmlns="http://www.w3.org/2000/svg">
<path d="M16.25 0H3.75C1.68 0 0 1.68 0 3.75V16.25C0 18.32 1.68 20 3.75 20H16.25C18.32 20 20 18.32 20 16.25V3.75C20 1.68 18.32 0 16.25 0ZM13.95 12.94C14.25 13.24 14.24 13.71 13.95 14C13.8 14.15 13.61 14.22 13.42 14.22C13.23 14.22 13.03 14.15 12.89 14L10 11.07L7.12 14C6.97 14.15 6.77 14.22 6.58 14.22C6.39 14.22 6.2 14.15 6.06 14C5.76 13.71 5.76 13.24 6.05 12.94L8.95 10L6.05 7.06C5.76 6.76 5.76 6.29 6.06 6C6.35 5.71 6.81999 5.71 7.12 6L10 8.93L12.89 6C13.18 5.71 13.65 5.71 13.95 6C14.24 6.29 14.25 6.76 13.95 7.06L11.05 10L13.95 12.94Z" fill="black"/>
</svg>
