<svg width="13" height="12" viewBox="0 0 13 12" fill="none" xmlns="http://www.w3.org/2000/svg">
<path d="M12.7115 0.289007C13.0962 0.669543 13.0962 1.28649 12.7115 1.66712L7.89193 6.42984C7.12234 7.19032 5.87535 7.19001 5.10625 6.42917L0.288523 1.66362C-0.0961745 1.28298 -0.0961745 0.666036 0.288523 0.285402C0.67322 -0.0951342 1.29701 -0.0951342 1.68171 0.285402L5.80521 4.3643C6.18991 4.74486 6.8136 4.74486 7.19839 4.3643L11.3183 0.289007C11.703 -0.0916266 12.3267 -0.0916266 12.7115 0.289007Z" fill="#F1F1F1"/>
<path d="M10.8002 7.20643C11.0666 7.47825 11.0666 7.91892 10.8002 8.1908L7.46365 11.5927C6.93085 12.1359 6.06755 12.1357 5.5351 11.5923L2.19975 8.1883C1.93342 7.91642 1.93342 7.47574 2.19975 7.20386C2.46608 6.93205 2.89793 6.93205 3.16426 7.20386L6.01899 10.1174C6.28532 10.3892 6.71711 10.3892 6.9835 10.1174L9.83572 7.20643C10.1021 6.93455 10.5339 6.93455 10.8002 7.20643Z" fill="#F1F1F1"/>
</svg>
