<svg width="8" height="8" viewBox="0 0 8 8" fill="none" xmlns="http://www.w3.org/2000/svg">
<path d="M4 0C1.796 0 0 1.796 0 4C0 6.204 1.796 8 4 8C6.204 8 8 6.204 8 4C8 1.796 6.204 0 4 0ZM3.7 2.4C3.7 2.236 3.836 2.1 4 2.1C4.164 2.1 4.3 2.236 4.3 2.4V4.4C4.3 4.564 4.164 4.7 4 4.7C3.836 4.7 3.7 4.564 3.7 4.4V2.4ZM4.368 5.752C4.348 5.804 4.32 5.844 4.284 5.884C4.244 5.92 4.2 5.948 4.152 5.968C4.104 5.988 4.052 6 4 6C3.948 6 3.896 5.988 3.848 5.968C3.8 5.948 3.756 5.92 3.716 5.884C3.68 5.844 3.652 5.804 3.632 5.752C3.612 5.704 3.6 5.652 3.6 5.6C3.6 5.548 3.612 5.496 3.632 5.448C3.652 5.4 3.68 5.356 3.716 5.316C3.756 5.28 3.8 5.252 3.848 5.232C3.944 5.192 4.056 5.192 4.152 5.232C4.2 5.252 4.244 5.28 4.284 5.316C4.32 5.356 4.348 5.4 4.368 5.448C4.388 5.496 4.4 5.548 4.4 5.6C4.4 5.652 4.388 5.704 4.368 5.752Z" fill="#535353"/>
</svg>
