<svg width="150" height="150" viewBox="0 0 150 150" fill="none" xmlns="http://www.w3.org/2000/svg">
<path d="M28.3638 46.5378L72.0811 90.5015L59.3174 103.194L15.6001 59.23L28.3638 46.5378Z" fill="#F95F5F"/>
<path d="M74.9014 93.3379L87.5935 106.102L74.8298 118.794L62.1377 106.03L74.9014 93.3379Z" fill="#F95F5F"/>
<path d="M75.0762 31.1128L87.7683 43.8764L75.0047 56.5685L62.3125 43.8049L75.0762 31.1128Z" fill="#F95F5F"/>
<path d="M90.5889 46.7126L134.306 90.6763L121.543 103.368L77.8252 59.4048L90.5889 46.7126Z" fill="#F95F5F"/>
<path d="M75.1638 0L149.906 75.1636L137.143 87.8557L62.4001 12.6921L75.1638 0Z" fill="url(#paint0_linear_299_389)"/>
<path d="M56.6557 43.7888L106.014 93.4252L93.2503 106.117L43.8921 56.4809L56.6557 43.7888Z" fill="url(#paint1_linear_299_389)"/>
<path d="M62.0505 137.143L106.014 93.4252L118.706 106.189L74.7426 149.906L62.0505 137.143Z" fill="url(#paint2_linear_299_389)"/>
<path d="M12.7636 62.0505L74.814 124.451L62.0505 137.143L0 74.7427L12.7636 62.0505Z" fill="url(#paint3_linear_299_389)"/>
<path d="M31.2002 43.7173L62.4001 12.6921L75.0922 25.4557L43.8921 56.4809L31.2002 43.7173Z" fill="url(#paint4_linear_299_389)"/>
<defs>
<linearGradient id="paint0_linear_299_389" x1="27.5" y1="-3" x2="130.5" y2="166.5" gradientUnits="userSpaceOnUse">
<stop offset="0.233756" stop-color="#B3E363"/>
<stop offset="0.947719" stop-color="#0FB616"/>
</linearGradient>
<linearGradient id="paint1_linear_299_389" x1="27.5" y1="-3" x2="130.5" y2="166.5" gradientUnits="userSpaceOnUse">
<stop offset="0.233756" stop-color="#B3E363"/>
<stop offset="0.947719" stop-color="#0FB616"/>
</linearGradient>
<linearGradient id="paint2_linear_299_389" x1="27.5" y1="-3" x2="130.5" y2="166.5" gradientUnits="userSpaceOnUse">
<stop offset="0.233756" stop-color="#B3E363"/>
<stop offset="0.947719" stop-color="#0FB616"/>
</linearGradient>
<linearGradient id="paint3_linear_299_389" x1="27.5" y1="-3" x2="130.5" y2="166.5" gradientUnits="userSpaceOnUse">
<stop offset="0.233756" stop-color="#B3E363"/>
<stop offset="0.947719" stop-color="#0FB616"/>
</linearGradient>
<linearGradient id="paint4_linear_299_389" x1="27.5" y1="-3" x2="130.5" y2="166.5" gradientUnits="userSpaceOnUse">
<stop offset="0.233756" stop-color="#B3E363"/>
<stop offset="0.947719" stop-color="#0FB616"/>
</linearGradient>
</defs>
</svg>
