<svg width="32" height="32" viewBox="0 0 32 32" fill="none" xmlns="http://www.w3.org/2000/svg">
<path fill-rule="evenodd" clip-rule="evenodd" d="M7.73333 16C7.73333 17.3255 6.65882 18.4 5.33333 18.4C4.00785 18.4 2.93333 17.3255 2.93333 16C2.93333 14.6745 4.00785 13.6 5.33333 13.6C6.65882 13.6 7.73333 14.6745 7.73333 16ZM18.4 16C18.4 17.3255 17.3255 18.4 16 18.4C14.6745 18.4 13.6 17.3255 13.6 16C13.6 14.6745 14.6745 13.6 16 13.6C17.3255 13.6 18.4 14.6745 18.4 16ZM26.6667 18.4C27.9921 18.4 29.0667 17.3255 29.0667 16C29.0667 14.6745 27.9921 13.6 26.6667 13.6C25.3412 13.6 24.2667 14.6745 24.2667 16C24.2667 17.3255 25.3412 18.4 26.6667 18.4Z" fill="black"/>
</svg>
