<svg width="20" height="20" viewBox="0 0 20 20" fill="none" xmlns="http://www.w3.org/2000/svg">
<path d="M10 20C4.477 20 0 15.523 0 10C0 4.477 4.477 0 10 0C15.523 0 20 4.477 20 10C20 15.523 15.523 20 10 20ZM5.92 7.234V7.336C5.92 7.46861 5.97268 7.59579 6.06645 7.68955C6.16021 7.78332 6.28739 7.836 6.42 7.836H7.417C7.48253 7.836 7.54742 7.82309 7.60796 7.79802C7.6685 7.77294 7.72351 7.73618 7.76985 7.68985C7.81618 7.64351 7.85294 7.5885 7.87802 7.52796C7.90309 7.46742 7.916 7.40253 7.916 7.337C7.916 6.047 8.914 5.358 10.256 5.358C11.564 5.358 12.424 6.047 12.424 7.028C12.424 7.956 11.942 8.387 10.738 8.938L10.394 9.092C9.379 9.54 9 10.21 9 11.381V11.5C9 11.6326 9.05268 11.7598 9.14645 11.8536C9.24021 11.9473 9.36739 12 9.5 12H10.497C10.5625 12 10.6274 11.9871 10.688 11.962C10.7485 11.9369 10.8035 11.9002 10.8498 11.8538C10.8962 11.8075 10.9329 11.7525 10.958 11.692C10.9831 11.6314 10.996 11.5665 10.996 11.501C10.996 10.985 11.134 10.778 11.546 10.589L11.891 10.434C13.336 9.78 14.42 8.92 14.42 7.044V6.941C14.42 4.963 12.7 3.5 10.256 3.5C7.778 3.5 5.92 4.928 5.92 7.234ZM8.5 14.991C8.5 15.858 9.159 16.5 9.991 16.5C10.841 16.5 11.5 15.858 11.5 14.991C11.5 14.124 10.841 13.5 9.991 13.5C9.159 13.5 8.5 14.124 8.5 14.991Z" fill="#B4B3B3"/>
</svg>
