<svg width="64" height="25" viewBox="0 0 64 25" fill="none" xmlns="http://www.w3.org/2000/svg">
<path d="M0 0.0359993C0.106 -0.0220007 0.214 0.00799943 0.318 0.00799943C3.53666 0.00799943 6.75598 0.0059989 9.976 0.0019989C9.98798 0.0019989 10.002 0 10.018 0C10.206 0 10.372 0.088 10.48 0.226C14.9653 5.51932 19.454 10.8133 23.946 16.104C24.432 16.676 24.928 17.24 25.398 17.822C25.57 18.036 25.646 17.996 25.804 17.81C28.5 14.622 31.2007 11.438 33.906 8.25799C36.186 5.57134 38.4654 2.884 40.7438 0.195999C40.8441 0.0779993 40.9401 0.0019989 41.1118 0.0019989C44.4188 0.00866556 47.7259 0.0106661 51.034 0.00799943C51.082 0.00799943 51.13 0.0139996 51.1819 0.0179996C51.194 0.154 51.0859 0.211999 51.0219 0.289999C44.2926 8.22332 37.5627 16.158 30.832 24.094C30.724 24.234 30.556 24.322 30.368 24.322C30.354 24.322 30.34 24.322 30.326 24.32C27.166 24.3147 24.008 24.3147 20.848 24.32C20.838 24.32 20.824 24.322 20.812 24.322C20.632 24.322 20.472 24.238 20.37 24.106C15.2273 18.0367 10.0814 11.9673 4.93202 5.90201C3.348 4.03534 1.764 2.16866 0.18 0.302C0.114 0.224 0.016 0.157999 0 0.0359993Z" fill="white" fill-opacity="0.85"/>
<path d="M64.0002 0.0219059C63.5003 0.613905 63.0363 1.16191 62.5723 1.70791C56.2935 9.10792 50.0169 16.5086 43.742 23.9099C43.5003 24.1959 43.2603 24.3239 42.8724 24.3219C39.7421 24.3039 36.6121 24.3119 33.4822 24.3119H33.1262C33.0942 24.1719 33.1962 24.1199 33.2542 24.0499C39.6034 16.5672 45.9536 9.08524 52.3042 1.60391C52.7063 1.1299 53.1102 0.655907 53.5102 0.181906C53.6041 0.0699057 53.6962 0.00390625 53.8562 0.00390625C57.1749 0.00923958 60.493 0.0105726 63.8103 0.00790597C63.8484 0.00390597 63.8861 0.0119059 64.0002 0.0219059Z" fill="white" fill-opacity="0.85"/>
<path d="M38.4663 0.027832C37.656 0.98583 36.8702 1.91583 36.0862 2.84183C35.0435 4.07251 34.0002 5.30248 32.9562 6.53181C31.9882 7.67183 31.0188 8.8105 30.0482 9.94781C29.0162 11.1638 27.9868 12.3798 26.9602 13.5958C26.5522 14.0758 26.1382 14.5498 25.7362 15.0338C25.6042 15.1938 25.5162 15.1718 25.3962 15.0258C24.5842 14.0458 23.7702 13.0638 22.9482 12.0918C22.4522 11.5038 21.9342 10.9378 21.4382 10.3498C20.8282 9.62984 20.2382 8.89583 19.6282 8.17583C19.0182 7.45583 18.3862 6.75382 17.7762 6.03581C17.1662 5.31784 16.5762 4.58383 15.9682 3.86582C15.4782 3.28783 14.9702 2.72783 14.4802 2.14783C13.9902 1.56783 13.4962 0.971832 13.0082 0.379832C12.9182 0.269831 12.7662 0.209832 12.7222 0.027832H38.4663Z" fill="white" fill-opacity="0.85"/>
</svg>
